<svg width="26" height="20" viewBox="0 0 26 20" fill="none" xmlns="http://www.w3.org/2000/svg">
<path fill-rule="evenodd" clip-rule="evenodd" d="M25.25 18.6266C25.25 18.8587 25.1578 19.0812 24.9937 19.2453C24.8296 19.4094 24.6071 19.5016 24.375 19.5016L1.625 19.5016C1.39293 19.5016 1.17038 19.4094 1.00628 19.2453C0.842186 19.0812 0.75 18.8587 0.75 18.6266C0.75 18.3945 0.842186 18.172 1.00628 18.0079C1.17038 17.8438 1.39293 17.7516 1.625 17.7516L24.375 17.7516C24.6071 17.7516 24.8296 17.8438 24.9937 18.0079C25.1578 18.172 25.25 18.3945 25.25 18.6266ZM13 14.2516C12.7679 14.2516 12.5454 14.1594 12.3813 13.9953C12.2172 13.8312 12.125 13.6087 12.125 13.3766L12.125 3.23884L8.3695 6.99609C8.2052 7.16039 7.98236 7.25269 7.75 7.25269C7.51764 7.25269 7.2948 7.16039 7.1305 6.99609C6.9662 6.83179 6.8739 6.60894 6.8739 6.37659C6.8739 6.14423 6.9662 5.92139 7.1305 5.75709L12.3805 0.507088C12.4618 0.425602 12.5583 0.360952 12.6646 0.316841C12.7709 0.27273 12.8849 0.250023 13 0.250023C13.1151 0.250023 13.2291 0.27273 13.3354 0.316841C13.4417 0.360952 13.5382 0.425602 13.6195 0.507088L18.8695 5.75709C19.0338 5.92139 19.1261 6.14423 19.1261 6.37659C19.1261 6.60894 19.0338 6.83179 18.8695 6.99609C18.7052 7.16039 18.4824 7.25269 18.25 7.25269C18.0176 7.25269 17.7948 7.16039 17.6305 6.99609L13.875 3.23884L13.875 13.3766C13.875 13.6087 13.7828 13.8312 13.6187 13.9953C13.4546 14.1594 13.2321 14.2516 13 14.2516Z" fill="black"/>
</svg>
