<svg width="22" height="17" viewBox="0 0 22 17" fill="none" xmlns="http://www.w3.org/2000/svg">
<path d="M14.7366 3.55755L14.5646 3.63414L14.4858 3.80519L14.0049 4.84959L13.5358 3.80888L13.4571 3.63415L13.2817 3.55683L12.2394 3.09725L13.2817 2.63767L13.4571 2.56035L13.5358 2.38561L14.0049 1.34491L14.4858 2.38931L14.5646 2.56036L14.7366 2.63695L15.7706 3.09725L14.7366 3.55755ZM2.88032 5.57011L2.58905 5.64192L2.51533 5.93271L2.5 5.99319L2.48467 5.93271L2.41095 5.64192L2.11968 5.57011L2.08889 5.56252L2.11968 5.55493L2.41095 5.48313L2.48467 5.19234L2.5 5.13186L2.51533 5.19234L2.58905 5.48313L2.88032 5.55493L2.91111 5.56252L2.88032 5.57011Z" fill="#323232" stroke="#323232"/>
<path d="M2 16L8.64645 9.35355C8.84171 9.15829 9.15829 9.15829 9.35355 9.35355L13.6464 13.6464C13.8417 13.8417 14.1583 13.8417 14.3536 13.6464L20.5 7.5" stroke="#323232" stroke-width="2" stroke-linecap="round"/>
</svg>
