<svg width="32" height="25" viewBox="0 0 32 25" fill="none" xmlns="http://www.w3.org/2000/svg">
<path d="M22.2678 6.46454L22.0969 6.54362L22.0207 6.71578L21.0842 8.82956L20.1692 6.7194L20.093 6.5436L19.9188 6.46377L17.816 5.50006L19.9188 4.53634L20.093 4.45651L20.1692 4.28071L21.0842 2.17055L22.0207 4.28433L22.0969 4.4565L22.2678 4.53558L24.3521 5.50006L22.2678 6.46454ZM4.5893 9.59071L4.29873 9.66517L4.22765 9.95658L3.96951 11.015L3.71137 9.95658L3.64029 9.66517L3.34972 9.59071L2.26426 9.31256L3.34972 9.03441L3.64029 8.95995L3.71137 8.66854L3.96951 7.61015L4.22765 8.66854L4.29873 8.95995L4.5893 9.03441L5.67476 9.31256L4.5893 9.59071Z" fill="#FAFAFA" stroke="#FAFAFA"/>
<path d="M3.22559 23.8001L13.2823 13.492C13.4785 13.2909 13.8019 13.2909 13.9981 13.492L20.7214 20.3833C20.9176 20.5844 21.2409 20.5844 21.4371 20.3833L30.75 10.8376" stroke="#FAFAFA" stroke-width="2" stroke-linecap="round"/>
</svg>
